# xmcd
#
# Track frame offsets: 
#        180
#        20883
#        39951
#        59163
#        75169
#        86602
#        108602
#        127279
#        143494
#        167533
#        188115
#        206737
#        220948
#
# Disc length: 3671 seconds
#
# Revision: 0
# Processed by: cddbd v1.5.2PL0 Copyright (c) Steve Scherf et al.
# Submitted via: ExactAudioCopy v1.0b1
#
DISCID=b90e550d
DTITLE=Wheels - Wheels
DYEAR=1980
DGENRE=Blues
TTITLE0=What's Come Over You
TTITLE1=Feel Like A Fool
TTITLE2=Amaretta
TTITLE3=Lobelia
TTITLE4=Railway
TTITLE5=Just Like Always
TTITLE6=She'll Come Back
TTITLE7=I Can't Remember Friday Night
TTITLE8=Heaven Help Me
TTITLE9=Keep Movin' On
TTITLE10=Mexican Highway
TTITLE11=If The Phone Don't Ring
TTITLE12=High Heeled Sneakers (Live)
EXTD=
EXTT0=
EXTT1=
EXTT2=
EXTT3=
EXTT4=
EXTT5=
EXTT6=
EXTT7=
EXTT8=
EXTT9=
EXTT10=
EXTT11=
EXTT12=
PLAYORDER=
